<?xml version="1.0" encoding="utf-8"?>
<!-- Generator: Adobe Illustrator 21.0.2, SVG Export Plug-In . SVG Version: 6.00 Build 0)  -->
<svg version="1.1" id="Layer_1" xmlns="http://www.w3.org/2000/svg" xmlns:xlink="http://www.w3.org/1999/xlink" x="0px" y="0px"
	 viewBox="0 0 60 60" style="enable-background:new 0 0 60 60;" xml:space="preserve">
<path d="M30,7.8c-13,0-23.7,9.3-23.7,20.7c0,4.3,1.6,8.5,4.3,11.8c0.2,0.2,0.3,0.5,0.3,0.8l1,10.4l9.5-3.5c0.3-0.1,0.6-0.1,0.9,0
	c2.4,0.8,5,1.2,7.5,1.2c13,0,23.7-9.3,23.7-20.7C53.7,17.1,43,7.8,30,7.8L30,7.8z M10.8,55.1c-0.8,0-1.5-0.7-1.5-1.5L8.1,41.8l0,0
	c-3-3.8-4.7-8.5-4.7-13.3c0-13,11.8-23.7,26.6-23.7s26.6,10.6,26.6,23.7S44.8,52.2,30,52.2c-2.7,0-5.3-0.4-7.9-1.1l-10.8,3.9
	C11.1,55.1,10.9,55.1,10.8,55.1L10.8,55.1z"/>
<path d="M31.5,34.4c-0.6,0-1.2-0.4-1.4-1l-2.4-6.9l-10.4,5.1C17,32,16.6,32,16.2,31.9c-0.4-0.1-0.7-0.4-0.9-0.8
	c-0.2-0.4-0.2-0.8-0.1-1.2c0.1-0.4,0.4-0.7,0.8-0.9l11.8-5.9h0c0.4-0.2,0.9-0.3,1.3-0.1c0.4,0.2,0.7,0.5,0.9,1l2.4,6.9l10.4-4.8
	c0.7-0.3,1.6,0,2,0.7c0.3,0.7,0,1.6-0.7,2l-11.8,5.5C32,34.5,31.7,34.5,31.5,34.4L31.5,34.4z"/>
</svg>
