<?xml version="1.0" encoding="utf-8"?>
<!-- Generator: Adobe Illustrator 21.0.2, SVG Export Plug-In . SVG Version: 6.00 Build 0)  -->
<svg version="1.1" id="Layer_1" xmlns="http://www.w3.org/2000/svg" xmlns:xlink="http://www.w3.org/1999/xlink" x="0px" y="0px"
	 viewBox="0 0 44 44" style="enable-background:new 0 0 44 44;" xml:space="preserve">
<style type="text/css">
	.st0{fill:#010101;stroke:#000000;stroke-miterlimit:10;}
</style>
<g>
	<path class="st0" d="M24.8,43.4h-9.2V24.2h-5.1v-8.8h5.1v-4.9c0-4.5,2.8-9.8,10.8-9.8c2.8,0,4.9,0.3,5,0.3L32.3,1l-0.2,8.2l-0.9,0
		c0,0-2.1,0-4.4,0c-1.7,0-1.9,0.4-1.9,2.1v4.1h7.5l-0.4,8.8h-7.1L24.8,43.4L24.8,43.4L24.8,43.4z M17.5,41.5h5.4V22.3h7.2l0.2-5
		h-7.4v-6c0-2,0.5-4,3.8-4c1.4,0,2.6,0,3.5,0l0.1-4.6c-0.8-0.1-2.2-0.2-3.9-0.2c-6.6,0-8.9,4.1-8.9,7.9v6.8h-5.1v5h5.1L17.5,41.5
		L17.5,41.5L17.5,41.5z"/>
</g>
</svg>
