<?xml version="1.0" encoding="utf-8"?>
<!-- Generator: Adobe Illustrator 21.0.2, SVG Export Plug-In . SVG Version: 6.00 Build 0)  -->
<svg version="1.1" id="Layer_1" xmlns="http://www.w3.org/2000/svg" xmlns:xlink="http://www.w3.org/1999/xlink" x="0px" y="0px"
	 viewBox="0 0 44 44" style="enable-background:new 0 0 44 44;" xml:space="preserve">
<path d="M22,15.1c3.8,0,6.9,3.1,6.9,6.9s-3.1,6.9-6.9,6.9s-6.9-3.1-6.9-6.9S18.2,15.1,22,15.1z M22,11.3c-5.9,0-10.7,4.8-10.7,10.7
	S16.1,32.7,22,32.7S32.7,27.9,32.7,22S27.9,11.3,22,11.3z M34.6,7.6c-1.4,0-2.5,1.1-2.5,2.5s1.1,2.5,2.5,2.5s2.5-1.1,2.5-2.5
	S35.9,7.6,34.6,7.6z M10.7,3.8h22.6c3.9,0,6.9,3,6.9,6.9v22.6c0,3.9-3,6.9-6.9,6.9H10.7c-3.9,0-6.9-3-6.9-6.9V10.7
	C3.8,6.8,6.8,3.8,10.7,3.8z M10.7,0C4.8,0,0,4.8,0,10.7v22.6C0,39.2,4.8,44,10.7,44h22.6C39.2,44,44,39.2,44,33.3V10.7
	C44,4.8,39.2,0,33.3,0H10.7z"/>
</svg>
