<?xml version="1.0" encoding="utf-8"?>
<!-- Generator: Adobe Illustrator 21.0.2, SVG Export Plug-In . SVG Version: 6.00 Build 0)  -->
<svg version="1.1" id="Layer_1" xmlns="http://www.w3.org/2000/svg" xmlns:xlink="http://www.w3.org/1999/xlink" x="0px" y="0px"
	 viewBox="0 0 60 60" style="enable-background:new 0 0 60 60;" xml:space="preserve">
<path d="M50.5,19.5c0,0.5,0,0.9,0,1.4c0,14-10.6,30.1-30.1,30.1c-6,0-11.5-1.7-16.2-4.7c0.8,0.1,1.7,0.1,2.5,0.1
	c5,0,9.5-1.7,13.1-4.5c-4.6-0.1-8.5-3.1-9.9-7.3c0.6,0.1,1.3,0.2,2,0.2c1,0,1.9-0.1,2.8-0.4c-4.8-1-8.5-5.2-8.5-10.4v-0.1
	c1.4,0.8,3.1,1.3,4.8,1.3c-2.8-1.9-4.7-5.1-4.7-8.8c0-1.9,0.5-3.7,1.4-5.3c5.2,6.4,13,10.6,21.8,11c-0.2-0.8-0.3-1.6-0.3-2.4
	c0-5.8,4.7-10.6,10.6-10.6c3,0,5.8,1.3,7.7,3.3c2.4-0.5,4.7-1.4,6.7-2.6c-0.8,2.5-2.5,4.5-4.6,5.8c2.1-0.3,4.2-0.8,6.1-1.7
	C54.3,16.1,52.5,18,50.5,19.5L50.5,19.5z M58,10.9c0.4-1.5-0.1-3.1-1.3-4.1C56,6.3,55.2,6,54.3,6c-0.7,0-1.3,0.2-1.9,0.5
	c-1.2,0.7-2.4,1.3-3.7,1.7c-2.5-1.9-5.6-3-8.7-3c-7.3,0-13.3,5.4-14.2,12.4c-5.8-1.2-11.1-4.4-14.9-9.1C10,7.7,9,7.2,7.8,7.2
	c-0.1,0-0.2,0-0.3,0C6.3,7.3,5.2,8,4.5,9.1c-1.3,2.2-2,4.7-2,7.2c0,1.7,0.3,3.4,0.9,4.9c-0.6,0.7-1,1.6-1,2.5c0,3.8,1.4,7.2,3.8,9.8
	c-0.1,0.7-0.1,1.3,0.1,2c0.8,2.6,2.3,4.8,4.3,6.5c-1.3,0.3-2.6,0.4-3.9,0.4c-0.7,0-1.4,0-2.1-0.1c-0.1,0-0.3,0-0.4,0
	c-1.6,0-3,1-3.6,2.5c-0.6,1.7,0,3.5,1.5,4.5c5.5,3.5,11.8,5.4,18.3,5.4c21,0,33.6-16.9,33.9-33.4c1.7-1.5,3.2-3.1,4.5-5
	c0.5-0.6,0.8-1.4,0.8-2.3C59.6,12.7,58.9,11.6,58,10.9L58,10.9z"/>
</svg>
